# xmcd CD database file
# Copyright (C) 1996 Ti Kan
#
# Track frame offsets:
#  187
#  8607
#  23652
#  34690
#  45102
#  62700
#  70810
#  83262
#  96460
#  108087
#  122240
#  128962
#  151795
#  162220
#  171177
#  183747
#
# Disc length: 2542 seconds
#
# Revision: 1
# Processed by: cddbd v1.4b41PL1 Copyright (c) Steve Scherf et al.
# Submitted via: CDWizzard Release:4.12
#
DISCID=bb09ec10
DTITLE=Williams, Big Joe - Big Joe Williams
DYEAR=1900
DGENRE=
TTITLE0=Tailor Made Baby
TTITLE1=Prison Bound Blues
TTITLE2=Dark Road Blues
TTITLE3=Hold Up the Light, Let It Shine
TTITLE4=Delta Blues
TTITLE5=Lord Have Mercy
TTITLE6=Don't Your House Look Lonesome
TTITLE7=Somebody's Been Borrowin' That Heavy Stuff O' Mine
TTITLE8=Deal 'Em On Down
TTITLE9=Snitchin' Blues
TTITLE10=Jesus Gonna Make Up My Dyin' Bed
TTITLE11=Lonesome Train Blues
TTITLE12=No More Whiskey
TTITLE13=Liza Jane Blues
TTITLE14=Texas Blues
TTITLE15=When I Lay My Burden Down
EXTD=CD 2047\n\nSubmitted 6/24/97\n[Jmccoy@efn.org]
EXTT0=
EXTT1=
EXTT2=
EXTT3=
EXTT4=
EXTT5=
EXTT6=
EXTT7=
EXTT8=
EXTT9=
EXTT10=
EXTT11=
EXTT12=
EXTT13=
EXTT14=
EXTT15=
PLAYORDER=
